<svg width="250" height="24" viewBox="0 0 250 24" fill="none" xmlns="http://www.w3.org/2000/svg">
<path d="M21.968 16.76C22.2027 16.76 22.4053 16.8453 22.576 17.016C22.7467 17.1867 22.832 17.3893 22.832 17.624V22.136C22.832 22.3707 22.7467 22.5733 22.576 22.744C22.4053 22.9147 22.2027 23 21.968 23H1.744C1.50933 23 1.30667 22.9147 1.136 22.744C0.965333 22.5733 0.88 22.3707 0.88 22.136V1.464C0.88 1.22933 0.965333 1.02667 1.136 0.855999C1.30667 0.685332 1.50933 0.599998 1.744 0.599998H21.648C21.8827 0.599998 22.0853 0.685332 22.256 0.855999C22.4267 1.02667 22.512 1.22933 22.512 1.464V5.976C22.512 6.21067 22.4267 6.41333 22.256 6.584C22.0853 6.75467 21.8827 6.84 21.648 6.84H9.2V8.856H19.888C20.1227 8.856 20.3253 8.94133 20.496 9.112C20.6667 9.28267 20.752 9.48533 20.752 9.72V13.88C20.752 14.1147 20.6667 14.3173 20.496 14.488C20.3253 14.6587 20.1227 14.744 19.888 14.744H9.2V16.76H21.968ZM35.8435 14.36C35.8435 15.2347 36.1315 15.9067 36.7075 16.376C37.3048 16.8453 38.1048 17.08 39.1075 17.08C40.0035 17.08 40.6648 16.9307 41.0915 16.632C41.5182 16.3333 41.8808 15.8853 42.1795 15.288C42.4568 14.7333 42.8302 14.456 43.2995 14.456H50.2115C50.4035 14.456 50.5635 14.5307 50.6915 14.68C50.8408 14.808 50.9155 14.968 50.9155 15.16C50.9155 16.4613 50.4782 17.7413 49.6035 19C48.7288 20.2373 47.3955 21.272 45.6035 22.104C43.8328 22.9147 41.6675 23.32 39.1075 23.32C36.8248 23.32 34.7875 22.9787 32.9955 22.296C31.2248 21.592 29.8168 20.5253 28.7715 19.096C27.7262 17.6453 27.2035 15.8427 27.2035 13.688V9.912C27.2035 7.75733 27.7262 5.96533 28.7715 4.536C29.8168 3.08533 31.2248 2.01867 32.9955 1.336C34.7875 0.631999 36.8248 0.279999 39.1075 0.279999C41.6675 0.279999 43.8328 0.695999 45.6035 1.528C47.3955 2.33867 48.7288 3.37333 49.6035 4.632C50.4782 5.86933 50.9155 7.13867 50.9155 8.44C50.9155 8.632 50.8408 8.80267 50.6915 8.952C50.5635 9.08 50.4035 9.144 50.2115 9.144H43.2995C42.8302 9.144 42.4568 8.86667 42.1795 8.312C41.8808 7.71467 41.5182 7.26667 41.0915 6.968C40.6648 6.66933 40.0035 6.52 39.1075 6.52C38.1048 6.52 37.3048 6.75467 36.7075 7.224C36.1315 7.69333 35.8435 8.36533 35.8435 9.24V14.36ZM77.879 13.752C77.879 17.016 76.791 19.4267 74.615 20.984C72.4603 22.5413 69.5803 23.32 65.975 23.32C62.3697 23.32 59.479 22.5413 57.303 20.984C55.1483 19.4267 54.071 16.9947 54.071 13.688V9.912C54.071 7.736 54.583 5.93333 55.607 4.504C56.6523 3.05333 58.071 1.98667 59.863 1.304C61.655 0.621332 63.6923 0.279999 65.975 0.279999C68.2577 0.279999 70.2843 0.621332 72.055 1.304C73.847 1.98667 75.2657 3.04267 76.311 4.472C77.3563 5.90133 77.879 7.69333 77.879 9.848V13.752ZM62.711 14.36C62.711 15.2347 62.999 15.9067 63.575 16.376C64.1723 16.8453 64.9723 17.08 65.975 17.08C66.9777 17.08 67.767 16.8453 68.343 16.376C68.9403 15.8853 69.239 15.2027 69.239 14.328V9.272C69.239 8.39733 68.9403 7.72533 68.343 7.256C67.767 6.76533 66.9777 6.52 65.975 6.52C64.9723 6.52 64.1723 6.75467 63.575 7.224C62.999 7.69333 62.711 8.36533 62.711 9.24V14.36Z" fill="black"/>
<path d="M104.203 0.599998C104.437 0.599998 104.64 0.685332 104.811 0.855999C104.981 1.02667 105.067 1.22933 105.067 1.464V6.616C105.067 6.85067 104.981 7.05333 104.811 7.224C104.64 7.39467 104.437 7.48 104.203 7.48H97.3225V22.136C97.3225 22.3707 97.2372 22.5733 97.0665 22.744C96.8958 22.9147 96.6932 23 96.4585 23H89.8665C89.6318 23 89.4292 22.9147 89.2585 22.744C89.0878 22.5733 89.0025 22.3707 89.0025 22.136V7.48H82.1225C81.8878 7.48 81.6852 7.39467 81.5145 7.224C81.3438 7.05333 81.2585 6.85067 81.2585 6.616V1.464C81.2585 1.22933 81.3438 1.02667 81.5145 0.855999C81.6852 0.685332 81.8878 0.599998 82.1225 0.599998H104.203ZM130.718 16.76C130.953 16.76 131.155 16.8453 131.326 17.016C131.497 17.1867 131.582 17.3893 131.582 17.624V22.136C131.582 22.3707 131.497 22.5733 131.326 22.744C131.155 22.9147 130.953 23 130.718 23H110.494C110.259 23 110.057 22.9147 109.886 22.744C109.715 22.5733 109.63 22.3707 109.63 22.136V1.464C109.63 1.22933 109.715 1.02667 109.886 0.855999C110.057 0.685332 110.259 0.599998 110.494 0.599998H130.398C130.633 0.599998 130.835 0.685332 131.006 0.855999C131.177 1.02667 131.262 1.22933 131.262 1.464V5.976C131.262 6.21067 131.177 6.41333 131.006 6.584C130.835 6.75467 130.633 6.84 130.398 6.84H117.95V8.856H128.638C128.873 8.856 129.075 8.94133 129.246 9.112C129.417 9.28267 129.502 9.48533 129.502 9.72V13.88C129.502 14.1147 129.417 14.3173 129.246 14.488C129.075 14.6587 128.873 14.744 128.638 14.744H117.95V16.76H130.718ZM144.594 14.36C144.594 15.2347 144.882 15.9067 145.458 16.376C146.055 16.8453 146.855 17.08 147.858 17.08C148.754 17.08 149.415 16.9307 149.842 16.632C150.268 16.3333 150.631 15.8853 150.93 15.288C151.207 14.7333 151.58 14.456 152.05 14.456H158.962C159.154 14.456 159.314 14.5307 159.442 14.68C159.591 14.808 159.666 14.968 159.666 15.16C159.666 16.4613 159.228 17.7413 158.354 19C157.479 20.2373 156.146 21.272 154.354 22.104C152.583 22.9147 150.418 23.32 147.858 23.32C145.575 23.32 143.538 22.9787 141.746 22.296C139.975 21.592 138.567 20.5253 137.522 19.096C136.476 17.6453 135.954 15.8427 135.954 13.688V9.912C135.954 7.75733 136.476 5.96533 137.522 4.536C138.567 3.08533 139.975 2.01867 141.746 1.336C143.538 0.631999 145.575 0.279999 147.858 0.279999C150.418 0.279999 152.583 0.695999 154.354 1.528C156.146 2.33867 157.479 3.37333 158.354 4.632C159.228 5.86933 159.666 7.13867 159.666 8.44C159.666 8.632 159.591 8.80267 159.442 8.952C159.314 9.08 159.154 9.144 158.962 9.144H152.05C151.58 9.144 151.207 8.86667 150.93 8.312C150.631 7.71467 150.268 7.26667 149.842 6.968C149.415 6.66933 148.754 6.52 147.858 6.52C146.855 6.52 146.055 6.75467 145.458 7.224C144.882 7.69333 144.594 8.36533 144.594 9.24V14.36ZM185.381 0.599998C185.616 0.599998 185.818 0.685332 185.989 0.855999C186.16 1.02667 186.245 1.22933 186.245 1.464V22.136C186.245 22.3707 186.16 22.5733 185.989 22.744C185.818 22.9147 185.616 23 185.381 23H178.789C178.554 23 178.352 22.9147 178.181 22.744C178.01 22.5733 177.925 22.3707 177.925 22.136V15.32H171.525V22.136C171.525 22.3707 171.44 22.5733 171.269 22.744C171.098 22.9147 170.896 23 170.661 23H164.069C163.834 23 163.632 22.9253 163.461 22.776C163.29 22.6053 163.205 22.392 163.205 22.136V1.464C163.205 1.22933 163.29 1.02667 163.461 0.855999C163.632 0.685332 163.834 0.599998 164.069 0.599998H170.661C170.896 0.599998 171.098 0.685332 171.269 0.855999C171.44 1.02667 171.525 1.22933 171.525 1.464V8.024H177.925V1.464C177.925 1.22933 178.01 1.02667 178.181 0.855999C178.352 0.685332 178.554 0.599998 178.789 0.599998H185.381ZM198.245 20.4844C198.245 20.252 198.209 20.0469 198.136 19.8691C198.067 19.6868 197.944 19.5228 197.767 19.377C197.593 19.2311 197.352 19.0921 197.042 18.96C196.737 18.8278 196.349 18.6934 195.88 18.5566C195.388 18.4108 194.943 18.249 194.547 18.0713C194.15 17.889 193.811 17.6816 193.528 17.4492C193.246 17.2168 193.029 16.9502 192.879 16.6494C192.729 16.3486 192.653 16.0046 192.653 15.6172C192.653 15.2298 192.733 14.8721 192.893 14.5439C193.052 14.2158 193.28 13.931 193.576 13.6895C193.877 13.4434 194.235 13.252 194.649 13.1152C195.064 12.9785 195.527 12.9102 196.037 12.9102C196.785 12.9102 197.418 13.0537 197.938 13.3408C198.462 13.6234 198.86 13.9948 199.134 14.4551C199.407 14.9108 199.544 15.3984 199.544 15.918H198.231C198.231 15.5443 198.152 15.2139 197.992 14.9268C197.833 14.6351 197.591 14.4072 197.268 14.2432C196.944 14.0745 196.534 13.9902 196.037 13.9902C195.568 13.9902 195.18 14.0609 194.875 14.2021C194.57 14.3434 194.342 14.5348 194.191 14.7764C194.046 15.0179 193.973 15.2936 193.973 15.6035C193.973 15.8132 194.016 16.0046 194.103 16.1777C194.194 16.3464 194.333 16.5036 194.52 16.6494C194.711 16.7952 194.952 16.9297 195.244 17.0527C195.54 17.1758 195.894 17.2943 196.304 17.4082C196.869 17.5677 197.356 17.7454 197.767 17.9414C198.177 18.1374 198.514 18.3584 198.778 18.6045C199.047 18.846 199.245 19.1217 199.373 19.4316C199.505 19.737 199.571 20.0833 199.571 20.4707C199.571 20.8763 199.489 21.2432 199.325 21.5713C199.161 21.8994 198.926 22.1797 198.621 22.4121C198.316 22.6445 197.949 22.8245 197.521 22.9521C197.097 23.0752 196.623 23.1367 196.099 23.1367C195.638 23.1367 195.185 23.0729 194.738 22.9453C194.296 22.8177 193.893 22.6263 193.528 22.3711C193.168 22.1159 192.879 21.8014 192.66 21.4277C192.446 21.0495 192.339 20.612 192.339 20.1152H193.651C193.651 20.457 193.717 20.751 193.85 20.9971C193.982 21.2386 194.162 21.4391 194.39 21.5986C194.622 21.7581 194.884 21.8766 195.176 21.9541C195.472 22.027 195.78 22.0635 196.099 22.0635C196.559 22.0635 196.949 21.9997 197.268 21.8721C197.587 21.7445 197.828 21.5622 197.992 21.3252C198.161 21.0882 198.245 20.8079 198.245 20.4844ZM200.727 19.3838V19.2266C200.727 18.6934 200.804 18.1989 200.959 17.7432C201.114 17.2829 201.337 16.8841 201.629 16.5469C201.921 16.2051 202.274 15.9408 202.688 15.7539C203.103 15.5625 203.568 15.4668 204.083 15.4668C204.603 15.4668 205.07 15.5625 205.484 15.7539C205.904 15.9408 206.259 16.2051 206.551 16.5469C206.847 16.8841 207.073 17.2829 207.228 17.7432C207.382 18.1989 207.46 18.6934 207.46 19.2266V19.3838C207.46 19.917 207.382 20.4115 207.228 20.8672C207.073 21.3229 206.847 21.7217 206.551 22.0635C206.259 22.4007 205.906 22.665 205.491 22.8564C205.081 23.0433 204.616 23.1367 204.097 23.1367C203.577 23.1367 203.11 23.0433 202.695 22.8564C202.281 22.665 201.925 22.4007 201.629 22.0635C201.337 21.7217 201.114 21.3229 200.959 20.8672C200.804 20.4115 200.727 19.917 200.727 19.3838ZM201.991 19.2266V19.3838C201.991 19.7529 202.035 20.1016 202.121 20.4297C202.208 20.7533 202.338 21.0404 202.511 21.291C202.688 21.5417 202.91 21.7399 203.174 21.8857C203.438 22.027 203.746 22.0977 204.097 22.0977C204.443 22.0977 204.746 22.027 205.006 21.8857C205.27 21.7399 205.489 21.5417 205.662 21.291C205.835 21.0404 205.965 20.7533 206.052 20.4297C206.143 20.1016 206.188 19.7529 206.188 19.3838V19.2266C206.188 18.862 206.143 18.5179 206.052 18.1943C205.965 17.8662 205.833 17.5768 205.655 17.3262C205.482 17.071 205.263 16.8704 204.999 16.7246C204.739 16.5788 204.434 16.5059 204.083 16.5059C203.737 16.5059 203.431 16.5788 203.167 16.7246C202.907 16.8704 202.688 17.071 202.511 17.3262C202.338 17.5768 202.208 17.8662 202.121 18.1943C202.035 18.5179 201.991 18.862 201.991 19.2266ZM210.42 12.5V23H209.148V12.5H210.42ZM216.976 21.291V15.6035H218.247V23H217.037L216.976 21.291ZM217.215 19.7324L217.741 19.7188C217.741 20.2109 217.689 20.6667 217.584 21.0859C217.484 21.5007 217.32 21.8607 217.092 22.166C216.864 22.4714 216.565 22.7106 216.196 22.8838C215.827 23.0524 215.378 23.1367 214.85 23.1367C214.49 23.1367 214.159 23.0843 213.858 22.9795C213.562 22.8747 213.307 22.7129 213.093 22.4941C212.879 22.2754 212.712 21.9906 212.594 21.6396C212.48 21.2887 212.423 20.8672 212.423 20.375V15.6035H213.688V20.3887C213.688 20.7214 213.724 20.9971 213.797 21.2158C213.874 21.43 213.977 21.6009 214.104 21.7285C214.237 21.8516 214.382 21.9382 214.542 21.9883C214.706 22.0384 214.875 22.0635 215.048 22.0635C215.586 22.0635 216.012 21.9609 216.326 21.7559C216.641 21.5462 216.866 21.266 217.003 20.915C217.144 20.5596 217.215 20.1654 217.215 19.7324ZM223.271 15.6035V16.5742H219.272V15.6035H223.271ZM220.626 13.8057H221.891V21.168C221.891 21.4186 221.929 21.6077 222.007 21.7354C222.084 21.863 222.185 21.9473 222.308 21.9883C222.431 22.0293 222.563 22.0498 222.704 22.0498C222.809 22.0498 222.918 22.0407 223.032 22.0225C223.151 21.9997 223.24 21.9814 223.299 21.9678L223.306 23C223.205 23.0319 223.073 23.0615 222.909 23.0889C222.75 23.1208 222.556 23.1367 222.328 23.1367C222.018 23.1367 221.733 23.0752 221.474 22.9521C221.214 22.8291 221.007 22.624 220.852 22.3369C220.701 22.0452 220.626 21.6533 220.626 21.1611V13.8057ZM226.129 15.6035V23H224.857V15.6035H226.129ZM224.762 13.6416C224.762 13.4365 224.823 13.2633 224.946 13.1221C225.074 12.9808 225.261 12.9102 225.507 12.9102C225.748 12.9102 225.933 12.9808 226.061 13.1221C226.193 13.2633 226.259 13.4365 226.259 13.6416C226.259 13.8376 226.193 14.0062 226.061 14.1475C225.933 14.2842 225.748 14.3525 225.507 14.3525C225.261 14.3525 225.074 14.2842 224.946 14.1475C224.823 14.0062 224.762 13.8376 224.762 13.6416ZM227.824 19.3838V19.2266C227.824 18.6934 227.902 18.1989 228.057 17.7432C228.212 17.2829 228.435 16.8841 228.727 16.5469C229.018 16.2051 229.371 15.9408 229.786 15.7539C230.201 15.5625 230.666 15.4668 231.181 15.4668C231.7 15.4668 232.167 15.5625 232.582 15.7539C233.001 15.9408 233.357 16.2051 233.648 16.5469C233.945 16.8841 234.17 17.2829 234.325 17.7432C234.48 18.1989 234.558 18.6934 234.558 19.2266V19.3838C234.558 19.917 234.48 20.4115 234.325 20.8672C234.17 21.3229 233.945 21.7217 233.648 22.0635C233.357 22.4007 233.004 22.665 232.589 22.8564C232.179 23.0433 231.714 23.1367 231.194 23.1367C230.675 23.1367 230.208 23.0433 229.793 22.8564C229.378 22.665 229.023 22.4007 228.727 22.0635C228.435 21.7217 228.212 21.3229 228.057 20.8672C227.902 20.4115 227.824 19.917 227.824 19.3838ZM229.089 19.2266V19.3838C229.089 19.7529 229.132 20.1016 229.219 20.4297C229.305 20.7533 229.435 21.0404 229.608 21.291C229.786 21.5417 230.007 21.7399 230.271 21.8857C230.536 22.027 230.843 22.0977 231.194 22.0977C231.541 22.0977 231.844 22.027 232.104 21.8857C232.368 21.7399 232.587 21.5417 232.76 21.291C232.933 21.0404 233.063 20.7533 233.149 20.4297C233.241 20.1016 233.286 19.7529 233.286 19.3838V19.2266C233.286 18.862 233.241 18.5179 233.149 18.1943C233.063 17.8662 232.931 17.5768 232.753 17.3262C232.58 17.071 232.361 16.8704 232.097 16.7246C231.837 16.5788 231.532 16.5059 231.181 16.5059C230.834 16.5059 230.529 16.5788 230.265 16.7246C230.005 16.8704 229.786 17.071 229.608 17.3262C229.435 17.5768 229.305 17.8662 229.219 18.1943C229.132 18.5179 229.089 18.862 229.089 19.2266ZM237.408 17.1826V23H236.144V15.6035H237.34L237.408 17.1826ZM237.107 19.0215L236.581 19.001C236.586 18.4951 236.661 18.028 236.807 17.5996C236.952 17.1667 237.158 16.7907 237.422 16.4717C237.686 16.1527 238.001 15.9066 238.365 15.7334C238.734 15.5557 239.142 15.4668 239.589 15.4668C239.953 15.4668 240.282 15.5169 240.573 15.6172C240.865 15.7129 241.113 15.8678 241.318 16.082C241.528 16.2962 241.688 16.5742 241.797 16.916C241.906 17.2533 241.961 17.6657 241.961 18.1533V23H240.689V18.1396C240.689 17.7523 240.632 17.4424 240.519 17.21C240.405 16.973 240.238 16.8021 240.02 16.6973C239.801 16.5879 239.532 16.5332 239.213 16.5332C238.898 16.5332 238.611 16.5993 238.352 16.7314C238.096 16.8636 237.875 17.0459 237.688 17.2783C237.506 17.5107 237.363 17.7773 237.258 18.0781C237.158 18.3743 237.107 18.6888 237.107 19.0215ZM248.188 21.0381C248.188 20.8558 248.147 20.6872 248.065 20.5322C247.988 20.3727 247.826 20.2292 247.58 20.1016C247.339 19.9694 246.974 19.8555 246.486 19.7598C246.076 19.6732 245.705 19.5706 245.372 19.4521C245.044 19.3337 244.764 19.1901 244.531 19.0215C244.303 18.8529 244.128 18.6546 244.005 18.4268C243.882 18.1989 243.82 17.9323 243.82 17.627C243.82 17.3353 243.884 17.0596 244.012 16.7998C244.144 16.54 244.328 16.3099 244.565 16.1094C244.807 15.9089 245.096 15.7516 245.434 15.6377C245.771 15.5238 246.147 15.4668 246.562 15.4668C247.154 15.4668 247.66 15.5716 248.079 15.7812C248.498 15.9909 248.82 16.2712 249.043 16.6221C249.266 16.9684 249.378 17.3535 249.378 17.7773H248.113C248.113 17.5723 248.052 17.374 247.929 17.1826C247.81 16.9867 247.635 16.8249 247.402 16.6973C247.174 16.5697 246.894 16.5059 246.562 16.5059C246.211 16.5059 245.926 16.5605 245.707 16.6699C245.493 16.7747 245.336 16.9092 245.235 17.0732C245.14 17.2373 245.092 17.4105 245.092 17.5928C245.092 17.7295 245.115 17.8525 245.16 17.9619C245.21 18.0667 245.297 18.1647 245.42 18.2559C245.543 18.3424 245.716 18.4245 245.939 18.502C246.163 18.5794 246.448 18.6569 246.794 18.7344C247.4 18.8711 247.899 19.0352 248.291 19.2266C248.683 19.418 248.975 19.6527 249.166 19.9307C249.357 20.2087 249.453 20.5459 249.453 20.9424C249.453 21.266 249.385 21.5622 249.248 21.8311C249.116 22.0999 248.922 22.3324 248.667 22.5283C248.416 22.7197 248.116 22.8701 247.765 22.9795C247.418 23.0843 247.029 23.1367 246.596 23.1367C245.944 23.1367 245.393 23.0205 244.941 22.7881C244.49 22.5557 244.148 22.2549 243.916 21.8857C243.684 21.5166 243.567 21.127 243.567 20.7168H244.839C244.857 21.0632 244.957 21.3389 245.14 21.5439C245.322 21.7445 245.545 21.888 245.81 21.9746C246.074 22.0566 246.336 22.0977 246.596 22.0977C246.942 22.0977 247.231 22.0521 247.464 21.9609C247.701 21.8698 247.881 21.7445 248.004 21.585C248.127 21.4255 248.188 21.2432 248.188 21.0381Z" fill="#111B47"/>
</svg>
