<svg width="17" height="16" viewBox="0 0 17 16" fill="none" xmlns="http://www.w3.org/2000/svg">
<path fill-rule="evenodd" clip-rule="evenodd" d="M5.51096 0H11.5276C14.2963 0 16.5415 2.239 16.5415 5V11C16.5415 13.761 14.2963 16 11.5276 16H5.51096C2.74229 16 0.49707 13.761 0.49707 11V5C0.49707 2.239 2.74229 0 5.51096 0ZM11.5276 14.5C13.463 14.5 15.0373 12.93 15.0373 11V5C15.0373 3.07 13.463 1.5 11.5276 1.5H5.51096C3.5756 1.5 2.00124 3.07 2.00124 5V11C2.00124 12.93 3.5756 14.5 5.51096 14.5H11.5276ZM4.50818 8C4.50818 5.791 6.30415 4 8.51929 4C10.7344 4 12.5304 5.791 12.5304 8C12.5304 10.209 10.7344 12 8.51929 12C6.30415 12 4.50818 10.209 4.50818 8ZM6.01234 8C6.01234 9.378 7.13746 10.5 8.51929 10.5C9.90111 10.5 11.0262 9.378 11.0262 8C11.0262 6.621 9.90111 5.5 8.51929 5.5C7.13746 5.5 6.01234 6.621 6.01234 8ZM13.3657 3.7C13.3657 3.99437 13.1265 4.233 12.8313 4.233C12.5361 4.233 12.2968 3.99437 12.2968 3.7C12.2968 3.40564 12.5361 3.167 12.8313 3.167C13.1265 3.167 13.3657 3.40564 13.3657 3.7Z" fill="#B0B8BC"/>
</svg>
