<svg width="17" height="16" viewBox="0 0 17 16" fill="none" xmlns="http://www.w3.org/2000/svg">
<path fill-rule="evenodd" clip-rule="evenodd" d="M13.8629 2.75869C14.8245 2.81269 15.2968 2.95469 15.732 3.72669C16.1853 4.49769 16.4139 5.82569 16.4139 8.16469V8.16769V8.17269C16.4139 10.5007 16.1853 11.8387 15.733 12.6017C15.2978 13.3737 14.8255 13.5137 13.8639 13.5787C12.9022 13.6337 10.4865 13.6667 8.39367 13.6667C6.29685 13.6667 3.88013 13.6337 2.91947 13.5777C1.9598 13.5127 1.48749 13.3727 1.04827 12.6007C0.600025 11.8377 0.369385 10.4997 0.369385 8.17169V8.16969V8.16669V8.16369C0.369385 5.82569 0.600025 4.49769 1.04827 3.72669C1.48749 2.95369 1.9608 2.81269 2.92047 2.75769C3.88013 2.69369 6.29685 2.66669 8.39367 2.66669C10.4865 2.66669 12.9022 2.69369 13.8629 2.75869ZM11.4 8.16669L6.38609 5.16669V11.1667L11.4 8.16669Z" fill="#B0B8BC"/>
</svg>
