<svg width="135" height="92" viewBox="0 0 135 92" fill="none" xmlns="http://www.w3.org/2000/svg">
<path d="M40.6943 8.76465V16.0645H36.9346V8.76465H40.6943ZM40.2305 48.6328V55.1758H36.4951V48.6328H40.2305ZM43.917 40.7471C43.917 39.8031 43.7217 38.9811 43.3311 38.2812C42.9567 37.5651 42.3382 36.9222 41.4756 36.3525C40.613 35.7666 39.4574 35.2214 38.0088 34.7168C35.9255 33.9844 34.1025 33.1624 32.54 32.251C30.9938 31.3232 29.7894 30.1839 28.9268 28.833C28.0804 27.4658 27.6572 25.765 27.6572 23.7305C27.6572 21.7285 28.113 19.9951 29.0244 18.5303C29.9521 17.0654 31.238 15.9342 32.8818 15.1367C34.5257 14.3392 36.4463 13.9404 38.6436 13.9404C40.3363 13.9404 41.8581 14.1927 43.209 14.6973C44.5762 15.2018 45.7399 15.9424 46.7002 16.9189C47.6605 17.8955 48.3929 19.0999 48.8975 20.5322C49.4183 21.9482 49.6787 23.5758 49.6787 25.415H43.8193C43.8193 24.3734 43.6973 23.4456 43.4531 22.6318C43.2253 21.8018 42.8835 21.1019 42.4277 20.5322C41.972 19.9463 41.4186 19.4987 40.7676 19.1895C40.1328 18.8802 39.4085 18.7256 38.5947 18.7256C37.4391 18.7256 36.487 18.9453 35.7383 19.3848C34.9896 19.8079 34.4362 20.3939 34.0781 21.1426C33.7363 21.8913 33.5654 22.7458 33.5654 23.7061C33.5654 24.6338 33.7445 25.4476 34.1025 26.1475C34.4606 26.8473 35.071 27.4821 35.9336 28.0518C36.8125 28.6051 38.0169 29.1667 39.5469 29.7363C41.6465 30.485 43.4613 31.3232 44.9912 32.251C46.5374 33.1624 47.7256 34.2936 48.5557 35.6445C49.402 36.9792 49.8252 38.6637 49.8252 40.6982C49.8252 42.7979 49.3369 44.5801 48.3604 46.0449C47.4001 47.5098 46.0492 48.6247 44.3076 49.3896C42.5824 50.1383 40.5723 50.5127 38.2773 50.5127C36.8288 50.5127 35.3883 50.3255 33.9561 49.9512C32.54 49.5605 31.2542 48.9258 30.0986 48.0469C28.943 47.168 28.0234 46.0042 27.3398 44.5557C26.6562 43.0908 26.3145 41.3005 26.3145 39.1846H32.2227C32.2227 40.4541 32.3936 41.512 32.7354 42.3584C33.0771 43.2048 33.541 43.8721 34.127 44.3604C34.7129 44.8486 35.3639 45.1986 36.0801 45.4102C36.8125 45.6217 37.5449 45.7275 38.2773 45.7275C39.498 45.7275 40.5234 45.5241 41.3535 45.1172C42.1999 44.694 42.8346 44.1081 43.2578 43.3594C43.6973 42.5944 43.917 41.7236 43.917 40.7471ZM80.4639 37.3291V42.0166H54.8291L54.6338 38.4766L69.9658 14.4531H74.6777L69.5752 23.1934L60.7617 37.3291H80.4639ZM76.0205 14.4531V50H70.1367V14.4531H76.0205ZM108.563 29.248V35.0586C108.563 37.8418 108.287 40.2181 107.733 42.1875C107.196 44.1406 106.415 45.7275 105.39 46.9482C104.364 48.1689 103.135 49.0641 101.703 49.6338C100.287 50.2035 98.7002 50.4883 96.9424 50.4883C95.5426 50.4883 94.2406 50.3092 93.0361 49.9512C91.848 49.5931 90.7738 49.0316 89.8135 48.2666C88.8532 47.5016 88.0312 46.5169 87.3477 45.3125C86.6803 44.0918 86.1595 42.6351 85.7852 40.9424C85.4271 39.2497 85.248 37.2884 85.248 35.0586V29.248C85.248 26.4486 85.5247 24.0885 86.0781 22.168C86.6315 20.2311 87.4209 18.6605 88.4463 17.4561C89.4717 16.2354 90.6924 15.3483 92.1084 14.7949C93.5407 14.2415 95.1357 13.9648 96.8936 13.9648C98.3096 13.9648 99.6117 14.1439 100.8 14.502C102.004 14.8438 103.078 15.389 104.022 16.1377C104.983 16.8864 105.797 17.863 106.464 19.0674C107.147 20.2555 107.668 21.696 108.026 23.3887C108.384 25.0651 108.563 27.0182 108.563 29.248ZM102.68 35.8887V28.3691C102.68 26.9531 102.598 25.708 102.436 24.6338C102.273 23.5433 102.029 22.6237 101.703 21.875C101.394 21.11 101.003 20.4915 100.531 20.0195C100.059 19.5312 99.5221 19.1813 98.9199 18.9697C98.3177 18.7419 97.6423 18.6279 96.8936 18.6279C95.9821 18.6279 95.1683 18.807 94.4521 19.165C93.736 19.5068 93.1338 20.0602 92.6455 20.8252C92.1572 21.5902 91.7829 22.5993 91.5225 23.8525C91.2783 25.0895 91.1562 26.5951 91.1562 28.3691V35.8887C91.1562 37.321 91.2376 38.5824 91.4004 39.6729C91.5632 40.7633 91.8073 41.6992 92.1328 42.4805C92.4583 43.2454 92.849 43.8802 93.3047 44.3848C93.7767 44.873 94.3138 45.2311 94.916 45.459C95.5345 45.6868 96.21 45.8008 96.9424 45.8008C97.8701 45.8008 98.6921 45.6217 99.4082 45.2637C100.124 44.9056 100.727 44.3359 101.215 43.5547C101.703 42.7572 102.069 41.7236 102.313 40.4541C102.558 39.1846 102.68 37.6628 102.68 35.8887Z" fill="#222F65"/>
<path d="M29.9219 72.625H31.4219V80.3203C31.4219 81.1745 31.2318 81.8854 30.8516 82.4531C30.4714 83.0208 29.9661 83.4479 29.3359 83.7344C28.7109 84.0156 28.0312 84.1562 27.2969 84.1562C26.526 84.1562 25.8281 84.0156 25.2031 83.7344C24.5833 83.4479 24.0911 83.0208 23.7266 82.4531C23.3672 81.8854 23.1875 81.1745 23.1875 80.3203V72.625H24.6797V80.3203C24.6797 80.9141 24.7891 81.4036 25.0078 81.7891C25.2266 82.1745 25.5312 82.4609 25.9219 82.6484C26.3177 82.8359 26.776 82.9297 27.2969 82.9297C27.8229 82.9297 28.2812 82.8359 28.6719 82.6484C29.0677 82.4609 29.375 82.1745 29.5938 81.7891C29.8125 81.4036 29.9219 80.9141 29.9219 80.3203V72.625ZM35.4062 72.625V84H33.8984V72.625H35.4062ZM45.1953 84H42.8203L42.8359 82.7734H45.1953C46.0078 82.7734 46.6849 82.6042 47.2266 82.2656C47.7682 81.9219 48.1745 81.4427 48.4453 80.8281C48.7214 80.2083 48.8594 79.4844 48.8594 78.6562V77.9609C48.8594 77.3099 48.7812 76.7318 48.625 76.2266C48.4688 75.7161 48.2396 75.2865 47.9375 74.9375C47.6354 74.5833 47.2656 74.3151 46.8281 74.1328C46.3958 73.9505 45.8984 73.8594 45.3359 73.8594H42.7734V72.625H45.3359C46.0807 72.625 46.7604 72.75 47.375 73C47.9896 73.2448 48.5182 73.6016 48.9609 74.0703C49.4089 74.5339 49.7526 75.0964 49.9922 75.7578C50.2318 76.4141 50.3516 77.1536 50.3516 77.9766V78.6562C50.3516 79.4792 50.2318 80.2214 49.9922 80.8828C49.7526 81.5391 49.4062 82.099 48.9531 82.5625C48.5052 83.026 47.9635 83.3828 47.3281 83.6328C46.6979 83.8776 45.987 84 45.1953 84ZM43.625 72.625V84H42.1172V72.625H43.625ZM55.9062 84.1562C55.3177 84.1562 54.7839 84.0573 54.3047 83.8594C53.8307 83.6562 53.4219 83.3724 53.0781 83.0078C52.7396 82.6432 52.4792 82.2109 52.2969 81.7109C52.1146 81.2109 52.0234 80.6641 52.0234 80.0703V79.7422C52.0234 79.0547 52.125 78.4427 52.3281 77.9062C52.5312 77.3646 52.8073 76.9062 53.1562 76.5312C53.5052 76.1562 53.901 75.8724 54.3438 75.6797C54.7865 75.487 55.2448 75.3906 55.7188 75.3906C56.3229 75.3906 56.8438 75.4948 57.2812 75.7031C57.724 75.9115 58.0859 76.2031 58.3672 76.5781C58.6484 76.9479 58.8568 77.3854 58.9922 77.8906C59.1276 78.3906 59.1953 78.9375 59.1953 79.5312V80.1797H52.8828V79H57.75V78.8906C57.7292 78.5156 57.651 78.151 57.5156 77.7969C57.3854 77.4427 57.1771 77.151 56.8906 76.9219C56.6042 76.6927 56.2135 76.5781 55.7188 76.5781C55.3906 76.5781 55.0885 76.6484 54.8125 76.7891C54.5365 76.9245 54.2995 77.1276 54.1016 77.3984C53.9036 77.6693 53.75 78 53.6406 78.3906C53.5312 78.7812 53.4766 79.2318 53.4766 79.7422V80.0703C53.4766 80.4714 53.5312 80.849 53.6406 81.2031C53.7552 81.5521 53.9193 81.8594 54.1328 82.125C54.3516 82.3906 54.6146 82.599 54.9219 82.75C55.2344 82.901 55.5885 82.9766 55.9844 82.9766C56.4948 82.9766 56.9271 82.8724 57.2812 82.6641C57.6354 82.4557 57.9453 82.1771 58.2109 81.8281L59.0859 82.5234C58.9036 82.7995 58.6719 83.0625 58.3906 83.3125C58.1094 83.5625 57.763 83.7656 57.3516 83.9219C56.9453 84.0781 56.4635 84.1562 55.9062 84.1562ZM65.8047 81.7578C65.8047 81.5495 65.7578 81.3568 65.6641 81.1797C65.5755 80.9974 65.3906 80.8333 65.1094 80.6875C64.8333 80.5365 64.4167 80.4062 63.8594 80.2969C63.3906 80.1979 62.9661 80.0807 62.5859 79.9453C62.2109 79.8099 61.8906 79.6458 61.625 79.4531C61.3646 79.2604 61.1641 79.0339 61.0234 78.7734C60.8828 78.513 60.8125 78.2083 60.8125 77.8594C60.8125 77.526 60.8854 77.2109 61.0312 76.9141C61.1823 76.6172 61.3932 76.3542 61.6641 76.125C61.9401 75.8958 62.2708 75.7161 62.6562 75.5859C63.0417 75.4557 63.4714 75.3906 63.9453 75.3906C64.6224 75.3906 65.2005 75.5104 65.6797 75.75C66.1589 75.9896 66.526 76.3099 66.7812 76.7109C67.0365 77.1068 67.1641 77.5469 67.1641 78.0312H65.7188C65.7188 77.7969 65.6484 77.5703 65.5078 77.3516C65.3724 77.1276 65.1719 76.9427 64.9062 76.7969C64.6458 76.651 64.3255 76.5781 63.9453 76.5781C63.5443 76.5781 63.2188 76.6406 62.9688 76.7656C62.724 76.8854 62.5443 77.0391 62.4297 77.2266C62.3203 77.4141 62.2656 77.612 62.2656 77.8203C62.2656 77.9766 62.2917 78.1172 62.3438 78.2422C62.401 78.362 62.5 78.474 62.6406 78.5781C62.7812 78.6771 62.9792 78.7708 63.2344 78.8594C63.4896 78.9479 63.8151 79.0365 64.2109 79.125C64.9036 79.2812 65.474 79.4688 65.9219 79.6875C66.3698 79.9062 66.7031 80.1745 66.9219 80.4922C67.1406 80.8099 67.25 81.1953 67.25 81.6484C67.25 82.0182 67.1719 82.3568 67.0156 82.6641C66.8646 82.9714 66.6432 83.237 66.3516 83.4609C66.0651 83.6797 65.7214 83.8516 65.3203 83.9766C64.9245 84.0964 64.4792 84.1562 63.9844 84.1562C63.2396 84.1562 62.6094 84.0234 62.0938 83.7578C61.5781 83.4922 61.1875 83.1484 60.9219 82.7266C60.6562 82.3047 60.5234 81.8594 60.5234 81.3906H61.9766C61.9974 81.7865 62.112 82.1016 62.3203 82.3359C62.5286 82.5651 62.7839 82.7292 63.0859 82.8281C63.388 82.9219 63.6875 82.9688 63.9844 82.9688C64.3802 82.9688 64.7109 82.9167 64.9766 82.8125C65.2474 82.7083 65.4531 82.5651 65.5938 82.3828C65.7344 82.2005 65.8047 81.9922 65.8047 81.7578ZM70.7188 75.5469V84H69.2656V75.5469H70.7188ZM69.1562 73.3047C69.1562 73.0703 69.2266 72.8724 69.3672 72.7109C69.513 72.5495 69.7266 72.4688 70.0078 72.4688C70.2839 72.4688 70.4948 72.5495 70.6406 72.7109C70.7917 72.8724 70.8672 73.0703 70.8672 73.3047C70.8672 73.5286 70.7917 73.7214 70.6406 73.8828C70.4948 74.0391 70.2839 74.1172 70.0078 74.1172C69.7266 74.1172 69.513 74.0391 69.3672 73.8828C69.2266 73.7214 69.1562 73.5286 69.1562 73.3047ZM78.5156 75.5469H79.8281V83.8203C79.8281 84.5651 79.6771 85.2005 79.375 85.7266C79.0729 86.2526 78.651 86.651 78.1094 86.9219C77.5729 87.1979 76.9531 87.3359 76.25 87.3359C75.9583 87.3359 75.6146 87.2891 75.2188 87.1953C74.8281 87.1068 74.4427 86.9531 74.0625 86.7344C73.6875 86.5208 73.3724 86.2318 73.1172 85.8672L73.875 85.0078C74.2292 85.4349 74.599 85.7318 74.9844 85.8984C75.375 86.0651 75.7604 86.1484 76.1406 86.1484C76.599 86.1484 76.9948 86.0625 77.3281 85.8906C77.6615 85.7188 77.9193 85.4635 78.1016 85.125C78.2891 84.7917 78.3828 84.3802 78.3828 83.8906V77.4062L78.5156 75.5469ZM72.6953 79.8672V79.7031C72.6953 79.0573 72.7708 78.4714 72.9219 77.9453C73.0781 77.4141 73.2995 76.9583 73.5859 76.5781C73.8776 76.1979 74.2292 75.9062 74.6406 75.7031C75.0521 75.4948 75.5156 75.3906 76.0312 75.3906C76.5625 75.3906 77.026 75.4844 77.4219 75.6719C77.8229 75.8542 78.1615 76.1224 78.4375 76.4766C78.7188 76.8255 78.9401 77.2474 79.1016 77.7422C79.263 78.237 79.375 78.7969 79.4375 79.4219V80.1406C79.3802 80.7604 79.2682 81.3177 79.1016 81.8125C78.9401 82.3073 78.7188 82.7292 78.4375 83.0781C78.1615 83.4271 77.8229 83.6953 77.4219 83.8828C77.0208 84.0651 76.5521 84.1562 76.0156 84.1562C75.5104 84.1562 75.0521 84.0495 74.6406 83.8359C74.2344 83.6224 73.8854 83.3229 73.5938 82.9375C73.3021 82.5521 73.0781 82.099 72.9219 81.5781C72.7708 81.0521 72.6953 80.4818 72.6953 79.8672ZM74.1406 79.7031V79.8672C74.1406 80.2891 74.1823 80.6849 74.2656 81.0547C74.3542 81.4245 74.487 81.75 74.6641 82.0312C74.8464 82.3125 75.0781 82.5339 75.3594 82.6953C75.6406 82.8516 75.9766 82.9297 76.3672 82.9297C76.8464 82.9297 77.2422 82.8281 77.5547 82.625C77.8672 82.4219 78.1146 82.1536 78.2969 81.8203C78.4844 81.487 78.6302 81.125 78.7344 80.7344V78.8516C78.6771 78.5651 78.5885 78.2891 78.4688 78.0234C78.3542 77.7526 78.2031 77.513 78.0156 77.3047C77.8333 77.0911 77.6068 76.9219 77.3359 76.7969C77.0651 76.6719 76.7474 76.6094 76.3828 76.6094C75.987 76.6094 75.6458 76.6927 75.3594 76.8594C75.0781 77.0208 74.8464 77.2448 74.6641 77.5312C74.487 77.8125 74.3542 78.1406 74.2656 78.5156C74.1823 78.8854 74.1406 79.2812 74.1406 79.7031ZM83.4688 77.3516V84H82.0234V75.5469H83.3906L83.4688 77.3516ZM83.125 79.4531L82.5234 79.4297C82.5286 78.8516 82.6146 78.3177 82.7812 77.8281C82.9479 77.3333 83.1823 76.9036 83.4844 76.5391C83.7865 76.1745 84.1458 75.8932 84.5625 75.6953C84.9844 75.4922 85.4505 75.3906 85.9609 75.3906C86.3776 75.3906 86.7526 75.4479 87.0859 75.5625C87.4193 75.6719 87.7031 75.849 87.9375 76.0938C88.1771 76.3385 88.3594 76.6562 88.4844 77.0469C88.6094 77.4323 88.6719 77.9036 88.6719 78.4609V84H87.2188V78.4453C87.2188 78.0026 87.1536 77.6484 87.0234 77.3828C86.8932 77.112 86.7031 76.9167 86.4531 76.7969C86.2031 76.6719 85.8958 76.6094 85.5312 76.6094C85.1719 76.6094 84.8438 76.6849 84.5469 76.8359C84.2552 76.987 84.0026 77.1953 83.7891 77.4609C83.5807 77.7266 83.4167 78.0312 83.2969 78.375C83.1823 78.7135 83.125 79.0729 83.125 79.4531ZM96.5625 72.625V84H95.0547V72.625H96.5625ZM103.43 72.625L98.7031 77.9297L96.0469 80.6875L95.7969 79.0781L97.7969 76.875L101.617 72.625H103.43ZM101.977 84L97.7656 78.4531L98.6641 77.2578L103.773 84H101.977ZM106.453 75.5469V84H105V75.5469H106.453ZM104.891 73.3047C104.891 73.0703 104.961 72.8724 105.102 72.7109C105.247 72.5495 105.461 72.4688 105.742 72.4688C106.018 72.4688 106.229 72.5495 106.375 72.7109C106.526 72.8724 106.602 73.0703 106.602 73.3047C106.602 73.5286 106.526 73.7214 106.375 73.8828C106.229 74.0391 106.018 74.1172 105.742 74.1172C105.461 74.1172 105.247 74.0391 105.102 73.8828C104.961 73.7214 104.891 73.5286 104.891 73.3047ZM112.312 75.5469V76.6562H107.742V75.5469H112.312ZM109.289 73.4922H110.734V81.9062C110.734 82.1927 110.779 82.4089 110.867 82.5547C110.956 82.7005 111.07 82.7969 111.211 82.8438C111.352 82.8906 111.503 82.9141 111.664 82.9141C111.784 82.9141 111.909 82.9036 112.039 82.8828C112.174 82.8568 112.276 82.8359 112.344 82.8203L112.352 84C112.237 84.0365 112.086 84.0703 111.898 84.1016C111.716 84.138 111.495 84.1562 111.234 84.1562C110.88 84.1562 110.555 84.0859 110.258 83.9453C109.961 83.8047 109.724 83.5703 109.547 83.2422C109.375 82.9089 109.289 82.4609 109.289 81.8984V73.4922Z" fill="#37447E"/>
</svg>
