<svg width="17" height="16" viewBox="0 0 17 16" fill="none" xmlns="http://www.w3.org/2000/svg">
<path d="M16.2861 2.87231C15.6895 3.13331 15.0537 3.30631 14.3909 3.39031C15.0728 2.98431 15.5932 2.34631 15.8379 1.57731C15.2021 1.95531 14.5002 2.22231 13.7521 2.37131C13.1484 1.73031 12.2881 1.33331 11.3495 1.33331C9.52842 1.33331 8.06236 2.80731 8.06236 4.61431C8.06236 4.87431 8.08442 5.12431 8.13857 5.36231C5.404 5.22931 2.98429 3.92231 1.35879 1.93131C1.07501 2.42231 0.908546 2.98431 0.908546 3.58931C0.908546 4.72531 1.49517 5.73231 2.36959 6.31531C1.84113 6.30531 1.32269 6.15231 0.883477 5.91131C0.883477 5.92131 0.883477 5.93431 0.883477 5.94731C0.883477 7.54131 2.02363 8.86531 3.51877 9.17031C3.25103 9.24331 2.95923 9.27831 2.65639 9.27831C2.4458 9.27831 2.23321 9.26631 2.03366 9.22231C2.45984 10.5213 3.66919 11.4763 5.10717 11.5073C3.98807 12.3803 2.56714 12.9063 1.02888 12.9063C0.759132 12.9063 0.500416 12.8943 0.241699 12.8613C1.69873 13.7983 3.42552 14.3333 5.28767 14.3333C11.3404 14.3333 14.6496 9.33331 14.6496 4.99931C14.6496 4.85431 14.6446 4.71431 14.6376 4.57531C15.2904 4.11331 15.8389 3.53631 16.2861 2.87231Z" fill="#B0B8BC"/>
</svg>
