<svg width="17" height="16" viewBox="0 0 17 16" fill="none" xmlns="http://www.w3.org/2000/svg">
<path fill-rule="evenodd" clip-rule="evenodd" d="M3.62349 1.75C3.62349 2.7165 2.83781 3.5 1.86863 3.5C0.899447 3.5 0.11377 2.7165 0.11377 1.75C0.11377 0.783502 0.899447 0 1.86863 0C2.83781 0 3.62349 0.783502 3.62349 1.75ZM0.11377 5H3.70171V16H0.11377V5ZM13.4372 5.1168L13.4371 5.11678C13.4122 5.10856 13.3872 5.10033 13.3605 5.093C13.3123 5.082 13.2642 5.073 13.2151 5.065C13.0245 5.027 12.8159 5 12.5713 5C10.4795 5 9.1528 6.517 8.71559 7.103V5H5.12766V16H8.71559V10C8.71559 10 11.4271 6.234 12.5713 9V16H16.1582V8.577C16.1582 6.915 15.016 5.53 13.4748 5.129C13.4621 5.12501 13.4496 5.1209 13.4372 5.1168Z" fill="#B0B8BC"/>
</svg>
